<mxfile host="app.diagrams.net" modified="2023-06-08T07:30:48.842Z" agent="Mozilla/5.0 (Macintosh; Intel Mac OS X 10_15_7) AppleWebKit/537.36 (KHTML, like Gecko) Chrome/113.0.0.0 Safari/537.36" version="21.3.7" etag="Q0Rjx27H8iyOy0DpTvaM" type="github">
  <diagram name="第 1 页" id="SU0J35uuQl6jHklKuRec">
    <mxGraphModel>
      <root>
        <mxCell id="0" />
        <mxCell id="1" parent="0" />
      </root>
    </mxGraphModel>
  </diagram>
</mxfile>
